<svg display="none" width="0" height="0" version="1.1" xmlns="http://www.w3.org/2000/svg" xmlns:xlink="http://www.w3.org/1999/xlink">
    <defs>
        <symbol id="icon-back"  viewBox="0 0 512 512">
          <title>ionicons-v5-arrow-back</title>
          <polyline points="244 400 100 256 244 112" style="fill:none;stroke:#000;stroke-linecap:square;stroke-miterlimit:10;stroke-width:48px"/>
          <line x1="120" y1="256" x2="412" y2="256" style="fill:none;stroke:#000;stroke-linecap:square;stroke-miterlimit:10;stroke-width:48px"/>
        </symbol>
        <symbol id="icon-back2" viewBox="0 0 512 512">
       			<path d="M256,0C114.844,0,0,114.844,0,256s114.844,256,256,256s256-114.844,256-256S397.156,0,256,0z M256,490.667
       				C126.604,490.667,21.333,385.396,21.333,256S126.604,21.333,256,21.333S490.667,126.604,490.667,256S385.396,490.667,256,490.667
       				z"/>
       			<path d="M394.667,245.333H143.083l77.792-77.792c4.167-4.167,4.167-10.917,0-15.083c-4.167-4.167-10.917-4.167-15.083,0l-96,96
       				c-4.167,4.167-4.167,10.917,0,15.083l96,96c2.083,2.083,4.813,3.125,7.542,3.125c2.729,0,5.458-1.042,7.542-3.125
       				c4.167-4.167,4.167-10.917,0-15.083l-77.792-77.792h251.583c5.896,0,10.667-4.771,10.667-10.667S400.563,245.333,394.667,245.333
       				z"/>
        </symbol>
    </defs>
</svg>
