<?xml version="1.0" encoding="UTF-8"?>
<svg width="859px" height="650px" viewBox="0 0 859 650" version="1.1" xmlns="http://www.w3.org/2000/svg" xmlns:xlink="http://www.w3.org/1999/xlink">
    <!-- Generator: Sketch 64 (93537) - https://sketch.com -->
    <title>Group 2</title>
    <desc>Created with Sketch.</desc>
    <defs>
        <path d="M19.7,0 L678.8,0 C689.4,0 698,6.4 698,14.2 L698,496.7 C698,504.6 689.4,510.9 678.8,510.9 L19.7,510.9 C9.1,510.9 0.5,504.5 0.5,496.7 L0.5,14.2 C0.5,6.4 9.1,0 19.7,0 Z" id="path-1"></path>
        <path d="M19.7,0 L678.8,0 C689.4,0 698,6.4 698,14.2 L698,496.7 C698,504.6 689.4,510.9 678.8,510.9 L19.7,510.9 C9.1,510.9 0.5,504.5 0.5,496.7 L0.5,14.2 C0.5,6.4 9.1,0 19.7,0 Z" id="path-3"></path>
        <path d="M19.7,0 L678.8,0 C689.4,0 698,6.4 698,14.2 L698,496.7 C698,504.6 689.4,510.9 678.8,510.9 L19.7,510.9 C9.1,510.9 0.5,504.5 0.5,496.7 L0.5,14.2 C0.5,6.4 9.1,0 19.7,0 Z" id="path-5"></path>
        <path d="M19.7,0 L678.8,0 C689.4,0 698,6.4 698,14.2 L698,496.7 C698,504.6 689.4,510.9 678.8,510.9 L19.7,510.9 C9.1,510.9 0.5,504.5 0.5,496.7 L0.5,14.2 C0.5,6.4 9.1,0 19.7,0 Z" id="path-7"></path>
        <path d="M19.7,0 L678.8,0 C689.4,0 698,6.4 698,14.2 L698,496.7 C698,504.6 689.4,510.9 678.8,510.9 L19.7,510.9 C9.1,510.9 0.5,504.5 0.5,496.7 L0.5,14.2 C0.5,6.4 9.1,0 19.7,0 Z" id="path-9"></path>
        <path d="M19.7,0 L678.8,0 C689.4,0 698,6.4 698,14.2 L698,496.7 C698,504.6 689.4,510.9 678.8,510.9 L19.7,510.9 C9.1,510.9 0.5,504.5 0.5,496.7 L0.5,14.2 C0.5,6.4 9.1,0 19.7,0 Z" id="path-11"></path>
        <path d="M19.7,0 L678.8,0 C689.4,0 698,6.4 698,14.2 L698,496.7 C698,504.6 689.4,510.9 678.8,510.9 L19.7,510.9 C9.1,510.9 0.5,504.5 0.5,496.7 L0.5,14.2 C0.5,6.4 9.1,0 19.7,0 Z" id="path-13"></path>
        <path d="M19.7,0 L678.8,0 C689.4,0 698,6.4 698,14.2 L698,496.7 C698,504.6 689.4,510.9 678.8,510.9 L19.7,510.9 C9.1,510.9 0.5,504.5 0.5,496.7 L0.5,14.2 C0.5,6.4 9.1,0 19.7,0 Z" id="path-15"></path>
        <path d="M19.7,0 L678.8,0 C689.4,0 698,6.4 698,14.2 L698,496.7 C698,504.6 689.4,510.9 678.8,510.9 L19.7,510.9 C9.1,510.9 0.5,504.5 0.5,496.7 L0.5,14.2 C0.5,6.4 9.1,0 19.7,0 Z" id="path-17"></path>
        <path d="M19.7,0 L678.8,0 C689.4,0 698,6.4 698,14.2 L698,496.7 C698,504.6 689.4,510.9 678.8,510.9 L19.7,510.9 C9.1,510.9 0.5,504.5 0.5,496.7 L0.5,14.2 C0.5,6.4 9.1,0 19.7,0 Z" id="path-19"></path>
        <path d="M19.7,0 L678.8,0 C689.4,0 698,6.4 698,14.2 L698,496.7 C698,504.6 689.4,510.9 678.8,510.9 L19.7,510.9 C9.1,510.9 0.5,504.5 0.5,496.7 L0.5,14.2 C0.5,6.4 9.1,0 19.7,0 Z" id="path-21"></path>
        <path d="M19.7,0 L678.8,0 C689.4,0 698,6.4 698,14.2 L698,496.7 C698,504.6 689.4,510.9 678.8,510.9 L19.7,510.9 C9.1,510.9 0.5,504.5 0.5,496.7 L0.5,14.2 C0.5,6.4 9.1,0 19.7,0 Z" id="path-23"></path>
        <path d="M19.7,0 L678.8,0 C689.4,0 698,6.4 698,14.2 L698,496.7 C698,504.6 689.4,510.9 678.8,510.9 L19.7,510.9 C9.1,510.9 0.5,504.5 0.5,496.7 L0.5,14.2 C0.5,6.4 9.1,0 19.7,0 Z" id="path-25"></path>
        <path d="M19.7,0 L678.8,0 C689.4,0 698,6.4 698,14.2 L698,496.7 C698,504.6 689.4,510.9 678.8,510.9 L19.7,510.9 C9.1,510.9 0.5,504.5 0.5,496.7 L0.5,14.2 C0.5,6.4 9.1,0 19.7,0 Z" id="path-27"></path>
        <path d="M19.7,0 L678.8,0 C689.4,0 698,6.4 698,14.2 L698,496.7 C698,504.6 689.4,510.9 678.8,510.9 L19.7,510.9 C9.1,510.9 0.5,504.5 0.5,496.7 L0.5,14.2 C0.5,6.4 9.1,0 19.7,0 Z" id="path-29"></path>
        <path d="M19.7,0 L678.8,0 C689.4,0 698,6.4 698,14.2 L698,496.7 C698,504.6 689.4,510.9 678.8,510.9 L19.7,510.9 C9.1,510.9 0.5,504.5 0.5,496.7 L0.5,14.2 C0.5,6.4 9.1,0 19.7,0 Z" id="path-31"></path>
        <path d="M19.7,0 L678.8,0 C689.4,0 698,6.4 698,14.2 L698,496.7 C698,504.6 689.4,510.9 678.8,510.9 L19.7,510.9 C9.1,510.9 0.5,504.5 0.5,496.7 L0.5,14.2 C0.5,6.4 9.1,0 19.7,0 Z" id="path-33"></path>
        <linearGradient x1="57.2964875%" y1="-3.03823428%" x2="47.313859%" y2="153.299121%" id="linearGradient-35">
            <stop stop-color="#2A2F43" offset="0%"></stop>
            <stop stop-color="#4455A3" offset="100%"></stop>
        </linearGradient>
    </defs>
    <g id="Page-1" stroke="none" stroke-width="1" fill="none" fill-rule="evenodd">
        <g id="Artboard" transform="translate(-498.000000, -240.000000)">
            <g id="Group-2" transform="translate(498.987678, 240.000000)">
                <g id="Path" transform="translate(78.012322, 0.000000)" fill="#EFF3F9" fill-rule="nonzero">
                    <path d="M19.7,0 L678.8,0 C689.4,0 698,6.4 698,14.2 L698,496.7 C698,504.6 689.4,510.9 678.8,510.9 L19.7,510.9 C9.1,510.9 0.5,504.5 0.5,496.7 L0.5,14.2 C0.5,6.4 9.1,0 19.7,0 Z" id="path-1"></path>
                </g>
                <g id="Path-Clipped" transform="translate(78.012322, 0.000000)">
                    <mask id="mask-2" fill="white">
                        <use xlink:href="#path-1"></use>
                    </mask>
                    <g id="path-1"></g>
                    <path d="M19.7,0 L678.8,0 C689.4,0 698,9 698,20 L698,54.6 L0.5,54.6 L0.5,20 C0.5,9 9.1,0 19.7,0 Z" id="Path" fill="#E3E6EC" fill-rule="nonzero" mask="url(#mask-2)"></path>
                </g>
                <g id="Oval-Clipped" transform="translate(78.012322, 0.000000)">
                    <mask id="mask-4" fill="white">
                        <use xlink:href="#path-3"></use>
                    </mask>
                    <g id="path-1"></g>
                    <circle id="Oval" fill="#F76400" fill-rule="nonzero" mask="url(#mask-4)" cx="38.9" cy="28" r="8.6"></circle>
                </g>
                <g id="Oval-Clipped" transform="translate(78.012322, 0.000000)">
                    <mask id="mask-6" fill="white">
                        <use xlink:href="#path-5"></use>
                    </mask>
                    <g id="path-1"></g>
                    <circle id="Oval" fill="#F76400" fill-rule="nonzero" mask="url(#mask-6)" cx="66.6" cy="28" r="8.6"></circle>
                </g>
                <g id="Oval-Clipped" transform="translate(78.012322, 0.000000)">
                    <mask id="mask-8" fill="white">
                        <use xlink:href="#path-7"></use>
                    </mask>
                    <g id="path-1"></g>
                    <circle id="Oval" fill="#F76400" fill-rule="nonzero" mask="url(#mask-8)" cx="94.3" cy="28" r="8.6"></circle>
                </g>
                <g id="Rectangle-Copy-Clipped" transform="translate(78.012322, 0.000000)">
                    <mask id="mask-10" fill="white">
                        <use xlink:href="#path-9"></use>
                    </mask>
                    <g id="path-1"></g>
                    <rect id="Rectangle-Copy" fill="#604DC2" fill-rule="nonzero" mask="url(#mask-10)" x="183" y="89" width="123" height="59" rx="10"></rect>
                </g>
                <g id="Group-Clipped" transform="translate(78.012322, 0.000000)">
                    <mask id="mask-12" fill="white">
                        <use xlink:href="#path-11"></use>
                    </mask>
                    <g id="path-1"></g>
                    <g id="Group" mask="url(#mask-12)">
                        <g transform="translate(183.000000, 170.000000)">
                            <g>
                                <g id="Rectangle">
                                    <g id="path-3-link" fill="#000000" fill-rule="nonzero">
                                        <rect id="path-3" x="0" y="0" width="245" height="62" rx="4"></rect>
                                    </g>
                                    <g id="path-3-link" fill="#FFFFFF">
                                        <rect id="path-3" x="0" y="0" width="245" height="62" rx="4"></rect>
                                    </g>
                                </g>
                                <g id="Rectangle-Copy-6" transform="translate(0.000000, 85.000000)">
                                    <g id="path-5-link" fill="#000000" fill-rule="nonzero">
                                        <rect id="path-5" x="0" y="0" width="245" height="62" rx="4"></rect>
                                    </g>
                                    <g id="path-5-link" fill="#FFFFFF">
                                        <rect id="path-5" x="0" y="0" width="245" height="62" rx="4"></rect>
                                    </g>
                                </g>
                                <g id="Rectangle-Copy-8" transform="translate(0.000000, 172.000000)">
                                    <g id="path-7-link" fill="#000000" fill-rule="nonzero">
                                        <rect id="path-7" x="0" y="0" width="245" height="62" rx="4"></rect>
                                    </g>
                                    <g id="path-7-link" fill="#FFFFFF">
                                        <rect id="path-7" x="0" y="0" width="245" height="62" rx="4"></rect>
                                    </g>
                                </g>
                                <path d="M4,0 L7,0 L7,0 L7,62 L4,62 C1.790861,62 0,60.209139 0,58 L0,4 C0,1.790861 1.790861,0 4,0 Z" id="Rectangle-Copy-5" fill="#604DC2"></path>
                                <path d="M4,85 L7,85 L7,85 L7,147 L4,147 C1.790861,147 0,145.209139 0,143 L0,89 C0,86.790861 1.790861,85 4,85 Z" id="Rectangle-Copy-7" fill="#604DC2"></path>
                                <path d="M4,172 L7,172 L7,172 L7,234 L4,234 C1.790861,234 0,232.209139 0,230 L0,176 C0,173.790861 1.790861,172 4,172 Z" id="Rectangle-Copy-9" fill="#604DC2"></path>
                                <path d="M26.6428571,45 C24.0828571,45 22,42.8891333 22,40.2947072 C22,37.7002812 24.0828571,35.5894145 26.6428571,35.5894145 C27.3314286,35.5894145 28.0007143,35.7436033 28.6321429,36.0483615 L29.1428571,36.2944845 L29.1428571,21.7840855 L47,19 L47,38.8469249 C47,41.4413509 44.9171429,43.5522176 42.3571429,43.5522176 C39.7971429,43.5522176 37.7142857,41.4413509 37.7142857,38.8469249 C37.7142857,36.2524988 39.7971429,34.1416321 42.3571429,34.1416321 C43.0457143,34.1416321 43.715,34.2958209 44.3464286,34.6005791 L44.8571429,34.8467021 L44.8571429,25.8335329 L31.2857143,27.955258 L31.2857143,40.2947072 C31.2857143,42.8891333 29.2028571,45 26.6428571,45 Z" id="Path" fill="#604DC2" fill-rule="nonzero"></path>
                                <path d="M26.6428571,130 C24.0828571,130 22,127.889133 22,125.294707 C22,122.700281 24.0828571,120.589414 26.6428571,120.589414 C27.3314286,120.589414 28.0007143,120.743603 28.6321429,121.048362 L29.1428571,121.294485 L29.1428571,106.784086 L47,104 L47,123.846925 C47,126.441351 44.9171429,128.552218 42.3571429,128.552218 C39.7971429,128.552218 37.7142857,126.441351 37.7142857,123.846925 C37.7142857,121.252499 39.7971429,119.141632 42.3571429,119.141632 C43.0457143,119.141632 43.715,119.295821 44.3464286,119.600579 L44.8571429,119.846702 L44.8571429,110.833533 L31.2857143,112.955258 L31.2857143,125.294707 C31.2857143,127.889133 29.2028571,130 26.6428571,130 Z" id="Path" fill="#604DC2" fill-rule="nonzero"></path>
                                <path d="M26.6428571,217 C24.0828571,217 22,214.889133 22,212.294707 C22,209.700281 24.0828571,207.589414 26.6428571,207.589414 C27.3314286,207.589414 28.0007143,207.743603 28.6321429,208.048362 L29.1428571,208.294485 L29.1428571,193.784086 L47,191 L47,210.846925 C47,213.441351 44.9171429,215.552218 42.3571429,215.552218 C39.7971429,215.552218 37.7142857,213.441351 37.7142857,210.846925 C37.7142857,208.252499 39.7971429,206.141632 42.3571429,206.141632 C43.0457143,206.141632 43.715,206.295821 44.3464286,206.600579 L44.8571429,206.846702 L44.8571429,197.833533 L31.2857143,199.955258 L31.2857143,212.294707 C31.2857143,214.889133 29.2028571,217 26.6428571,217 Z" id="Path" fill="#604DC2" fill-rule="nonzero"></path>
                            </g>
                        </g>
                    </g>
                </g>
                <g id="Rectangle-Clipped" transform="translate(78.012322, 0.000000)">
                    <mask id="mask-14" fill="white">
                        <use xlink:href="#path-13"></use>
                    </mask>
                    <g id="path-1"></g>
                    <rect id="Rectangle" fill="#E3E6EC" fill-rule="nonzero" mask="url(#mask-14)" x="474" y="89" width="181" height="9"></rect>
                </g>
                <g id="Rectangle-Copy-2-Clipped" transform="translate(78.012322, 0.000000)">
                    <mask id="mask-16" fill="white">
                        <use xlink:href="#path-15"></use>
                    </mask>
                    <g id="path-1"></g>
                    <rect id="Rectangle-Copy-2" fill="#E3E6EC" fill-rule="nonzero" mask="url(#mask-16)" x="474" y="196" width="181" height="9"></rect>
                </g>
                <g id="Rectangle-Clipped" transform="translate(78.012322, 0.000000)">
                    <mask id="mask-18" fill="white">
                        <use xlink:href="#path-17"></use>
                    </mask>
                    <g id="path-1"></g>
                    <rect id="Rectangle" fill="#E3E6EC" fill-rule="nonzero" mask="url(#mask-18)" x="474" y="116" width="181" height="9"></rect>
                </g>
                <g id="Rectangle-Clipped" transform="translate(78.012322, 0.000000)">
                    <mask id="mask-20" fill="white">
                        <use xlink:href="#path-19"></use>
                    </mask>
                    <g id="path-1"></g>
                    <rect id="Rectangle" fill="#E3E6EC" fill-rule="nonzero" mask="url(#mask-20)" x="474" y="143" width="181" height="9"></rect>
                </g>
                <g id="Rectangle-Clipped" transform="translate(78.012322, 0.000000)">
                    <mask id="mask-22" fill="white">
                        <use xlink:href="#path-21"></use>
                    </mask>
                    <g id="path-1"></g>
                    <rect id="Rectangle" fill="#E3E6EC" fill-rule="nonzero" mask="url(#mask-22)" x="474" y="169" width="181" height="9"></rect>
                </g>
                <g id="Rectangle-Copy-3-Clipped" transform="translate(78.012322, 0.000000)">
                    <mask id="mask-24" fill="white">
                        <use xlink:href="#path-23"></use>
                    </mask>
                    <g id="path-1"></g>
                    <rect id="Rectangle-Copy-3" fill="#E3E6EC" fill-rule="nonzero" mask="url(#mask-24)" x="474" y="222" width="181" height="9"></rect>
                </g>
                <g id="Rectangle-Copy-4-Clipped" transform="translate(78.012322, 0.000000)">
                    <mask id="mask-26" fill="white">
                        <use xlink:href="#path-25"></use>
                    </mask>
                    <g id="path-1"></g>
                    <rect id="Rectangle-Copy-4" fill="#E3E6EC" fill-rule="nonzero" mask="url(#mask-26)" x="474" y="248" width="181" height="9"></rect>
                </g>
                <g id="icons8-music-Clipped" transform="translate(78.012322, 0.000000)">
                    <mask id="mask-28" fill="white">
                        <use xlink:href="#path-27"></use>
                    </mask>
                    <g id="path-1"></g>
                </g>
                <g id="icons8-music-copy-Clipped" transform="translate(78.012322, 0.000000)">
                    <mask id="mask-30" fill="white">
                        <use xlink:href="#path-29"></use>
                    </mask>
                    <g id="path-1"></g>
                </g>
                <g id="icons8-music-copy-2-Clipped" transform="translate(78.012322, 0.000000)">
                    <mask id="mask-32" fill="white">
                        <use xlink:href="#path-31"></use>
                    </mask>
                    <g id="path-1"></g>
                </g>
                <g id="Rectangle-Clipped" transform="translate(78.012322, 0.000000)">
                    <mask id="mask-34" fill="white">
                        <use xlink:href="#path-33"></use>
                    </mask>
                    <g id="path-1"></g>
                    <rect id="Rectangle" fill="url(#linearGradient-35)" fill-rule="nonzero" mask="url(#mask-34)" x="0" y="55" width="144" height="456"></rect>
                </g>
                <rect id="Rectangle" fill="#DE8E68" fill-rule="nonzero" x="608.512322" y="503.2" width="15.3" height="23.2"></rect>
                <rect id="Rectangle" fill="#DE8E68" fill-rule="nonzero" x="788.812322" y="601.2" width="15.3" height="23.2"></rect>
                <path d="M720.812322,288.5 C702.312322,288.5 619.712322,370.6 612.512322,384.4 C605.312322,398.2 607.412322,506.3 607.412322,506.3 L625.212322,509.7 L654.112322,409 C666.712322,407.5 719.712322,396.1 747.112322,374 C774.512322,351.8 744.512322,302.3 744.512322,302.3 L720.812322,288.5 Z" id="Path" fill="#B2A3FF" fill-rule="nonzero"></path>
                <path d="M689.912322,177 C680.812322,185.1 662.612322,205.4 661.112322,208 C656.512322,205.8 608.612322,180.6 605.012322,179 C601.412322,177.4 593.812322,164.7 591.212322,164.7 C589.712322,164.7 588.312322,167.6 588.312322,169.6 C588.312322,173 589.912322,175.6 590.912322,176.7 C587.512322,176.2 557.512322,173.9 557.512322,175.9 C557.512322,181.1 591.112322,188 593.712322,189.4 C596.312322,190.8 651.012322,241.4 670.012322,241.4 C677.412322,241.4 710.112322,219.2 710.112322,216.8 C713.212322,214.7 718.012322,211.6 718.012322,211.6 L718.012322,194 L706.612322,185.7 C706.612322,185.6 691.712322,175.4 689.912322,177 Z" id="Path" fill="#FFD2C2" fill-rule="nonzero"></path>
                <path d="M688.712322,171.2 C690.712322,155 728.012322,118.2 745.112322,134.6 C760.012322,148.9 733.012322,200 726.112322,202 C718.312322,202.8 688.212322,182.2 688.712322,171.2 Z" id="Path" fill="#E9C161" fill-rule="nonzero"></path>
                <path d="M802.512322,137.5 C821.512322,129.5 848.112322,173.5 845.112322,189.5 C845.112322,196.5 806.112322,211.5 800.112322,207.5 C794.112322,203.5 783.512322,145.5 802.512322,137.5 Z" id="Path" fill="#FED892" fill-rule="nonzero"></path>
                <path d="M725.912322,295.6 L788.712322,601.1 L804.812322,601.1 L810.512322,328.6 C810.512322,323.9 810.112322,294.3 810.112322,290.5 C791.912322,295.8 753.112322,300 725.912322,295.6 Z" id="Path" fill="#8D79F1" fill-rule="nonzero"></path>
                <polygon id="Path" fill="#000000" fill-rule="nonzero" points="788.812322 624.4 804.112322 624.4 804.112322 641 761.912322 641"></polygon>
                <polygon id="Path" fill="#000000" fill-rule="nonzero" points="608.512322 526.4 623.812322 526.4 623.812322 543 581.612322 543"></polygon>
                <path d="M526.012322,543 L689.412322,543 C694.612322,543 698.712322,547.2 698.712322,552.3 L698.712322,640.2 C698.712322,645.4 694.512322,649.5 689.412322,649.5 L526.012322,649.5 C520.812322,649.5 516.708884,645.3 516.708884,640.2 L516.708884,552.3 C516.612322,547.2 520.812322,543 526.012322,543 Z" id="Path" fill="#FCDC8F" fill-rule="nonzero"></path>
                <path d="M99.6123219,649.6 L43.4123219,649 C39.3123219,649 35.8123219,646.2 34.7123219,642.3 L15.0123219,570.1 C13.4123219,564.3 17.8123219,558.6 23.8123219,558.6 L118.112322,558.6 C124.012322,558.6 128.412322,564.2 126.912322,569.9 L108.512322,642.7 C107.512322,646.8 103.912322,649.6 99.6123219,649.6 Z" id="Path" fill="#FCDC8F" fill-rule="nonzero"></path>
                <path d="M760.912322,114 C807.912322,114 824.312322,153.1 824.312322,165.8 C824.312322,178.5 809.612322,256 810.212322,290.5 C810.312322,296.2 725.912322,301.3 714.412322,293 C709.012322,289.1 697.412322,114 760.912322,114 Z" id="Path" fill="#FCDC8F" fill-rule="nonzero"></path>
                <path d="M845.112322,189.5 C858.412322,209.9 857.612322,256.9 857.612322,264 C857.612322,271.1 808.012322,334.9 803.712322,334.9 C801.112322,332.3 793.912322,324.4 793.912322,322 C796.212322,317.8 825.712322,253.3 831.012322,248.7 C828.612322,245.8 807.512322,212.7 806.612322,207.2 C825.112322,204.1 843.012322,196.3 845.112322,189.5 Z" id="Path" fill="#EDBFAC" fill-rule="nonzero"></path>
                <path d="M845.112322,189.5 C848.112322,173.5 823.812322,127.1 802.512322,137.5 C784.012322,146.6 794.112322,203.5 800.112322,207.5 C807.312322,210.6 842.312322,200.1 845.112322,189.5 Z" id="Path" fill="#E9C161" fill-rule="nonzero"></path>
                <path d="M748.912322,104.4 C747.912322,107.5 747.412322,117.1 748.512322,121.4 C748.612322,121.6 768.512322,123.1 770.712322,119.6 C770.812322,116.7 775.612322,90.9 782.112322,82.9 C782.712322,82 781.412322,79.5 781.412322,79.5 L758.312322,89.1 L748.912322,104.4" id="Path" fill="#EFBAA7" fill-rule="nonzero"></path>
                <path d="M778.812322,81.7 C780.312322,83.7 782.212322,84.6 783.912322,84.6 C787.712322,84.6 796.512322,81.1 796.512322,68.6 C796.512322,59.6 787.712322,55 787.712322,50.7 C787.712322,46.6 788.812322,46.5 788.812322,43.1 C788.812322,41.4 787.112322,35.8 781.812322,35.8 C778.812322,35.8 777.712322,38.3 774.712322,38.3 C771.412322,38.3 768.412322,31.9 763.412322,31.9 C760.012322,31.9 756.812322,35.1 753.212322,35.1 C749.112322,35.1 746.312322,29 740.612322,29 C734.712322,29 732.612322,34.3 730.312322,34.3 C727.412322,34.3 726.912322,33.5 724.012322,33.5 C722.212322,33.5 716.712322,36.7 716.712322,42.5 C716.712322,46.6 718.412322,53.3 726.912322,53.3 C731.912322,53.3 734.712322,61.2 739.112322,61.2 C740.812322,61.2 742.312322,59.8 742.712322,60.5 C744.412322,63.5 747.912322,71.7 747.912322,71.7 L763.812322,80.6 L778.812322,81.7 Z" id="Path" fill="#31395E" fill-rule="nonzero"></path>
                <path d="M775.312322,77.6 C775.312322,79 774.812322,79.3 772.712322,79.3 C771.712322,79.3 770.312322,78 770.312322,76.6 C770.312322,73.3 772.712322,72.6 772.712322,68.3 C772.712322,61 753.612322,57.2 746.912322,53.4 L746.912322,53.4 C744.512322,55.8 742.812322,58.9 742.112322,62.4 L737.812322,84.5 C735.912322,94.1 742.212322,103.4 751.712322,105.3 C761.212322,107.2 770.612322,100.9 772.512322,91.4 L773.212322,87.6 L773.212322,87.6 C773.612322,87.7 774.012322,87.8 774.312322,87.8 C776.812322,87.8 778.712322,85.5 778.712322,82.7 C778.912322,80.1 775.312322,75.5 775.312322,77.6 Z" id="Path" fill="#FFD0BD" fill-rule="nonzero"></path>
                <path d="M83.4123219,523.9 C63.1123219,388 13.4123219,316.7 7.11232186,319.4 C-1.78767814,323.3 -4.38767814,399.6 11.5123219,478.4 C11.9123219,478.4 12.2123219,478.3 12.6123219,478.3 C17.2123219,478.3 20.9123219,482 20.9123219,486.6 C20.9123219,488 20.6123219,489.3 20.0123219,490.4 C22.7123219,491.8 24.6123219,494.6 24.6123219,497.8 C24.6123219,501.8 21.7123219,505.2 17.9123219,506 C22.6123219,524.2 28.5123219,542.2 35.5123219,558.9 C39.1123219,558.9 79.5123219,558.9 79.5123219,558.9 C79.5123219,558.9 86.4123219,543.7 83.4123219,523.9 Z" id="Path" fill="#07A37E" fill-rule="nonzero"></path>
                <path d="M200.912322,379.8 C188.612322,379.8 175.412322,415.2 160.812322,415.2 C157.612322,415.2 155.512322,411.7 155.512322,408.4 C155.512322,405.2 165.612322,370 165.612322,352.9 C165.612322,351.4 165.512322,349.8 165.312322,348.2 C163.712322,349.2 161.712322,349.8 159.712322,349.8 C153.712322,349.8 148.812322,344.9 148.812322,338.9 C148.812322,333.6 152.512322,329.3 157.512322,328.2 C152.412322,321.7 144.912322,317.1 134.712322,317.1 C121.812322,317.1 103.612322,328.6 103.612322,346.4 C103.612322,351.4 105.112322,364.1 105.112322,375.6 C105.112322,440.8 54.0123219,450.6 54.0123219,522.8 C54.0123219,538 62.4123219,554.7 64.9123219,558.8 C64.9123219,558.8 107.712322,559.3 111.812322,559.3 C115.912322,559.3 149.212322,503.7 153.012322,497.8 C167.512322,475.4 215.712322,450.8 215.712322,397.3 C215.712322,389.8 213.012322,379.8 200.912322,379.8 Z" id="Path" fill="#00BA94" fill-rule="nonzero"></path>
                <path d="M293.603234,101 C291.569671,101 289.921466,102.68148 289.921466,104.756098 L289.921466,119.780488 C289.921466,121.855106 291.569671,123.536585 293.603234,123.536585 C295.636798,123.536585 297.285003,121.855106 297.285003,119.780488 L297.285003,104.756098 C297.285003,102.68148 295.636798,101 293.603234,101 Z" id="Shape-path" fill="#FFFFFF" fill-rule="nonzero"></path>
                <path d="M286.278155,113.878765 C285.569082,113.889588 285.002855,114.458961 285.012322,115.151384 L285.012322,120.1732 C285.012322,124.584861 288.377734,128.246741 292.726638,128.860843 L292.726638,131.472286 L288.869601,131.472286 C288.405939,131.465882 287.974664,131.70376 287.74092,132.094831 C287.507175,132.485902 287.507175,132.969577 287.74092,133.360648 C287.974664,133.751719 288.405939,133.989597 288.869601,133.983194 L293.796363,133.983194 C293.935205,134.005602 294.076873,134.005602 294.215715,133.983194 L299.155032,133.983194 C299.618694,133.989597 300.049969,133.751719 300.283714,133.360648 C300.517458,132.969577 300.517458,132.485902 300.283714,132.094831 C300.049969,131.70376 299.618694,131.465882 299.155032,131.472286 L295.297996,131.472286 L295.297996,128.860843 C299.646899,128.246741 303.012322,124.584861 303.012322,120.1732 L303.012322,115.151384 C303.018626,114.698622 302.775021,114.277485 302.374535,114.049236 C301.97405,113.820986 301.47873,113.820986 301.078244,114.049236 C300.677758,114.277485 300.434154,114.698622 300.440711,115.151384 L300.440711,120.1732 C300.440711,123.607407 297.655308,126.367512 294.15796,126.443114 C294.10299,126.436361 294.047631,126.433085 293.992228,126.433305 C293.945206,126.434061 293.898262,126.437336 293.851607,126.443114 C290.361362,126.359876 287.583923,123.602455 287.583923,120.1732 L287.583923,115.151384 C287.588681,114.812034 287.452556,114.485256 287.206563,114.245509 C286.960571,114.005761 286.625665,113.873465 286.278155,113.878765 Z" id="Shape-path" fill="#FFFFFF" fill-rule="nonzero"></path>
            </g>
        </g>
    </g>
</svg>