<?xml version="1.0" encoding="UTF-8"?>
<svg width="859px" height="650px" viewBox="0 0 859 650" version="1.1" xmlns="http://www.w3.org/2000/svg" xmlns:xlink="http://www.w3.org/1999/xlink">
    <!-- Generator: Sketch 63.1 (92452) - https://sketch.com -->
    <title>Group 2</title>
    <desc>Created with Sketch.</desc>
    <defs>
        <path d="M19.7,0 L678.8,0 C689.4,0 698,6.4 698,14.2 L698,496.7 C698,504.6 689.4,510.9 678.8,510.9 L19.7,510.9 C9.1,510.9 0.5,504.5 0.5,496.7 L0.5,14.2 C0.5,6.4 9.1,0 19.7,0 Z" id="path-1"></path>
        <rect id="path-3" x="0" y="0" width="245" height="62" rx="4"></rect>
        <filter x="-9.2%" y="-36.3%" width="118.4%" height="172.6%" filterUnits="objectBoundingBox" id="filter-4">
            <feOffset dx="0" dy="0" in="SourceAlpha" result="shadowOffsetOuter1"></feOffset>
            <feGaussianBlur stdDeviation="7.5" in="shadowOffsetOuter1" result="shadowBlurOuter1"></feGaussianBlur>
            <feColorMatrix values="0 0 0 0 0   0 0 0 0 0   0 0 0 0 0  0 0 0 0.0969733392 0" type="matrix" in="shadowBlurOuter1"></feColorMatrix>
        </filter>
        <rect id="path-5" x="0" y="85" width="245" height="62" rx="4"></rect>
        <filter x="-9.2%" y="-36.3%" width="118.4%" height="172.6%" filterUnits="objectBoundingBox" id="filter-6">
            <feOffset dx="0" dy="0" in="SourceAlpha" result="shadowOffsetOuter1"></feOffset>
            <feGaussianBlur stdDeviation="7.5" in="shadowOffsetOuter1" result="shadowBlurOuter1"></feGaussianBlur>
            <feColorMatrix values="0 0 0 0 0   0 0 0 0 0   0 0 0 0 0  0 0 0 0.0969733392 0" type="matrix" in="shadowBlurOuter1"></feColorMatrix>
        </filter>
        <rect id="path-7" x="0" y="172" width="245" height="62" rx="4"></rect>
        <filter x="-9.2%" y="-36.3%" width="118.4%" height="172.6%" filterUnits="objectBoundingBox" id="filter-8">
            <feOffset dx="0" dy="0" in="SourceAlpha" result="shadowOffsetOuter1"></feOffset>
            <feGaussianBlur stdDeviation="7.5" in="shadowOffsetOuter1" result="shadowBlurOuter1"></feGaussianBlur>
            <feColorMatrix values="0 0 0 0 0   0 0 0 0 0   0 0 0 0 0  0 0 0 0.0969733392 0" type="matrix" in="shadowBlurOuter1"></feColorMatrix>
        </filter>
        <linearGradient x1="57.2964875%" y1="-3.03823428%" x2="44.2634562%" y2="100%" id="linearGradient-9">
            <stop stop-color="#78A0EA" offset="0%"></stop>
            <stop stop-color="#4366D1" offset="100%"></stop>
        </linearGradient>
    </defs>
    <g id="Page-1" stroke="none" stroke-width="1" fill="none" fill-rule="evenodd">
        <g id="Group-2">
            <g id="song-writing-illustration">
                <g id="Background" transform="translate(79.000000, 0.000000)">
                    <mask id="mask-2" fill="white">
                        <use xlink:href="#path-1"></use>
                    </mask>
                    <use id="Path" fill="#EFF3F9" fill-rule="nonzero" xlink:href="#path-1"></use>
                    <path d="M19.7,0 L678.8,0 C689.4,0 698,9 698,20 L698,54.6 L0.5,54.6 L0.5,20 C0.5,9 9.1,0 19.7,0 Z" id="Path" fill="#E3E6EC" fill-rule="nonzero" mask="url(#mask-2)"></path>
                    <circle id="Oval" fill="#F76400" fill-rule="nonzero" mask="url(#mask-2)" cx="38.9" cy="28" r="8.6"></circle>
                    <circle id="Oval" fill="#F76400" fill-rule="nonzero" mask="url(#mask-2)" cx="66.6" cy="28" r="8.6"></circle>
                    <circle id="Oval" fill="#F76400" fill-rule="nonzero" mask="url(#mask-2)" cx="94.3" cy="28" r="8.6"></circle>
                    <rect id="Rectangle-Copy" fill="#00BA94" fill-rule="nonzero" mask="url(#mask-2)" x="183" y="89" width="123" height="59" rx="10"></rect>
                    <g id="Group" mask="url(#mask-2)">
                        <g transform="translate(183.000000, 170.000000)">
                            <g id="Rectangle" fill="none">
                                <use fill="black" fill-opacity="1" filter="url(#filter-4)" xlink:href="#path-3"></use>
                                <use fill="#FFFFFF" fill-rule="evenodd" xlink:href="#path-3"></use>
                            </g>
                            <g id="Rectangle-Copy-6" fill="none">
                                <use fill="black" fill-opacity="1" filter="url(#filter-6)" xlink:href="#path-5"></use>
                                <use fill="#FFFFFF" fill-rule="evenodd" xlink:href="#path-5"></use>
                            </g>
                            <g id="Rectangle-Copy-8" fill="none">
                                <use fill="black" fill-opacity="1" filter="url(#filter-8)" xlink:href="#path-7"></use>
                                <use fill="#FFFFFF" fill-rule="evenodd" xlink:href="#path-7"></use>
                            </g>
                            <path d="M4,0 L7,0 L7,0 L7,62 L4,62 C1.790861,62 2.705415e-16,60.209139 0,58 L0,4 C-2.705415e-16,1.790861 1.790861,4.05812251e-16 4,0 Z" id="Rectangle-Copy-5" fill="#5A7FDD" fill-rule="evenodd"></path>
                            <path d="M4,85 L7,85 L7,85 L7,147 L4,147 C1.790861,147 2.705415e-16,145.209139 0,143 L0,89 C-2.705415e-16,86.790861 1.790861,85 4,85 Z" id="Rectangle-Copy-7" fill="#5A7FDD" fill-rule="evenodd"></path>
                            <path d="M4,172 L7,172 L7,172 L7,234 L4,234 C1.790861,234 2.705415e-16,232.209139 0,230 L0,176 C-2.705415e-16,173.790861 1.790861,172 4,172 Z" id="Rectangle-Copy-9" fill="#5A7FDD" fill-rule="evenodd"></path>
                            <path d="M26.6428571,45 C24.0828571,45 22,42.8891333 22,40.2947072 C22,37.7002812 24.0828571,35.5894145 26.6428571,35.5894145 C27.3314286,35.5894145 28.0007143,35.7436033 28.6321429,36.0483615 L29.1428571,36.2944845 L29.1428571,21.7840855 L47,19 L47,38.8469249 C47,41.4413509 44.9171429,43.5522176 42.3571429,43.5522176 C39.7971429,43.5522176 37.7142857,41.4413509 37.7142857,38.8469249 C37.7142857,36.2524988 39.7971429,34.1416321 42.3571429,34.1416321 C43.0457143,34.1416321 43.715,34.2958209 44.3464286,34.6005791 L44.8571429,34.8467021 L44.8571429,25.8335329 L31.2857143,27.955258 L31.2857143,40.2947072 C31.2857143,42.8891333 29.2028571,45 26.6428571,45 Z" id="Path" fill="#5A7FDD" fill-rule="nonzero"></path>
                            <path d="M26.6428571,130 C24.0828571,130 22,127.889133 22,125.294707 C22,122.700281 24.0828571,120.589414 26.6428571,120.589414 C27.3314286,120.589414 28.0007143,120.743603 28.6321429,121.048362 L29.1428571,121.294485 L29.1428571,106.784086 L47,104 L47,123.846925 C47,126.441351 44.9171429,128.552218 42.3571429,128.552218 C39.7971429,128.552218 37.7142857,126.441351 37.7142857,123.846925 C37.7142857,121.252499 39.7971429,119.141632 42.3571429,119.141632 C43.0457143,119.141632 43.715,119.295821 44.3464286,119.600579 L44.8571429,119.846702 L44.8571429,110.833533 L31.2857143,112.955258 L31.2857143,125.294707 C31.2857143,127.889133 29.2028571,130 26.6428571,130 Z" id="Path" fill="#5A7FDD" fill-rule="nonzero"></path>
                            <path d="M26.6428571,217 C24.0828571,217 22,214.889133 22,212.294707 C22,209.700281 24.0828571,207.589414 26.6428571,207.589414 C27.3314286,207.589414 28.0007143,207.743603 28.6321429,208.048362 L29.1428571,208.294485 L29.1428571,193.784086 L47,191 L47,210.846925 C47,213.441351 44.9171429,215.552218 42.3571429,215.552218 C39.7971429,215.552218 37.7142857,213.441351 37.7142857,210.846925 C37.7142857,208.252499 39.7971429,206.141632 42.3571429,206.141632 C43.0457143,206.141632 43.715,206.295821 44.3464286,206.600579 L44.8571429,206.846702 L44.8571429,197.833533 L31.2857143,199.955258 L31.2857143,212.294707 C31.2857143,214.889133 29.2028571,217 26.6428571,217 Z" id="Path" fill="#5A7FDD" fill-rule="nonzero"></path>
                        </g>
                    </g>
                    <rect id="Rectangle" fill="#E3E6EC" fill-rule="nonzero" mask="url(#mask-2)" x="474" y="89" width="181" height="9"></rect>
                    <rect id="Rectangle-Copy-2" fill="#E3E6EC" fill-rule="nonzero" mask="url(#mask-2)" x="474" y="196" width="181" height="9"></rect>
                    <rect id="Rectangle" fill="#E3E6EC" fill-rule="nonzero" mask="url(#mask-2)" x="474" y="116" width="181" height="9"></rect>
                    <rect id="Rectangle" fill="#E3E6EC" fill-rule="nonzero" mask="url(#mask-2)" x="474" y="143" width="181" height="9"></rect>
                    <rect id="Rectangle" fill="#E3E6EC" fill-rule="nonzero" mask="url(#mask-2)" x="474" y="169" width="181" height="9"></rect>
                    <rect id="Rectangle-Copy-3" fill="#E3E6EC" fill-rule="nonzero" mask="url(#mask-2)" x="474" y="222" width="181" height="9"></rect>
                    <rect id="Rectangle-Copy-4" fill="#E3E6EC" fill-rule="nonzero" mask="url(#mask-2)" x="474" y="248" width="181" height="9"></rect>
                    <g id="icons8-music" mask="url(#mask-2)">
                        <g transform="translate(205.000000, 198.000000)"></g>
                    </g>
                    <g id="icons8-music-copy" mask="url(#mask-2)">
                        <g transform="translate(205.000000, 283.000000)"></g>
                    </g>
                    <g id="icons8-music-copy-2" mask="url(#mask-2)">
                        <g transform="translate(205.000000, 370.000000)"></g>
                    </g>
                    <rect id="Rectangle" fill="url(#linearGradient-9)" mask="url(#mask-2)" x="0" y="55" width="144" height="456"></rect>
                </g>
                <g id="Foreground" transform="translate(0.000000, 29.000000)" fill-rule="nonzero">
                    <rect id="Rectangle" fill="#DE8E68" x="609.5" y="474.2" width="15.3" height="23.2"></rect>
                    <rect id="Rectangle" fill="#DE8E68" x="789.8" y="572.2" width="15.3" height="23.2"></rect>
                    <path d="M721.8,259.5 C703.3,259.5 620.7,341.6 613.5,355.4 C606.3,369.2 608.4,477.3 608.4,477.3 L626.2,480.7 L655.1,380 C667.7,378.5 720.7,367.1 748.1,345 C775.5,322.8 745.5,273.3 745.5,273.3 L721.8,259.5 Z" id="Path" fill="#07A37E"></path>
                    <path d="M690.9,148 C681.8,156.1 663.6,176.4 662.1,179 C657.5,176.8 609.6,151.6 606,150 C602.4,148.4 594.8,135.7 592.2,135.7 C590.7,135.7 589.3,138.6 589.3,140.6 C589.3,144 590.9,146.6 591.9,147.7 C588.5,147.2 558.5,144.9 558.5,146.9 C558.5,152.1 592.1,159 594.7,160.4 C597.3,161.8 652,212.4 671,212.4 C678.4,212.4 711.1,190.2 711.1,187.8 C714.2,185.7 719,182.6 719,182.6 L719,165 L707.6,156.7 C707.6,156.6 692.7,146.4 690.9,148 Z" id="Path" fill="#E59E85"></path>
                    <path d="M689.7,142.2 C691.7,126 729,89.2 746.1,105.6 C761,119.9 734,171 727.1,173 C719.3,173.8 689.2,153.2 689.7,142.2 Z" id="Path" fill="#E29307"></path>
                    <path d="M803.5,108.5 C822.5,100.5 849.1,144.5 846.1,160.5 C846.1,167.5 807.1,182.5 801.1,178.5 C795.1,174.5 784.5,116.5 803.5,108.5 Z" id="Path" fill="#FED892"></path>
                    <path d="M726.9,266.6 L789.7,572.1 L805.8,572.1 L811.5,299.6 C811.5,294.9 811.1,265.3 811.1,261.5 C792.9,266.8 754.1,271 726.9,266.6 Z" id="Path" fill="#00BA94"></path>
                    <polygon id="Path" fill="#000000" points="789.8 595.4 805.1 595.4 805.1 612 762.9 612"></polygon>
                    <polygon id="Path" fill="#000000" points="609.5 497.4 624.8 497.4 624.8 514 582.6 514"></polygon>
                    <path d="M527,514 L690.4,514 C695.6,514 699.7,518.2 699.7,523.3 L699.7,611.2 C699.7,616.4 695.5,620.5 690.4,620.5 L527,620.5 C521.8,620.5 517.698251,616.3 517.698251,611.2 L517.698251,523.3 C517.6,518.2 521.8,514 527,514 Z" id="Path" fill="#ED4840"></path>
                    <path d="M100.6,620.6 L44.4,620 C40.3,620 36.8,617.2 35.7,613.3 L16,541.1 C14.4,535.3 18.8,529.6 24.8,529.6 L119.1,529.6 C125,529.6 129.4,535.2 127.9,540.9 L109.5,613.7 C108.5,617.8 104.9,620.6 100.6,620.6 Z" id="Path" fill="#ED4840"></path>
                    <path d="M761.9,85 C808.9,85 825.3,124.1 825.3,136.8 C825.3,149.5 810.6,227 811.2,261.5 C811.3,267.2 726.9,272.3 715.4,264 C710,260.1 698.4,85 761.9,85 Z" id="Path" fill="#F4A100"></path>
                    <path d="M846.1,160.5 C859.4,180.9 858.6,227.9 858.6,235 C858.6,242.1 809,305.9 804.7,305.9 C802.1,303.3 794.9,295.4 794.9,293 C797.2,288.8 826.7,224.3 832,219.7 C829.6,216.8 808.5,183.7 807.6,178.2 C826.1,175.1 844,167.3 846.1,160.5 Z" id="Path" fill="#E09577"></path>
                    <path d="M846.1,160.5 C849.1,144.5 824.8,98.1 803.5,108.5 C785,117.6 795.1,174.5 801.1,178.5 C808.3,181.6 843.3,171.1 846.1,160.5 Z" id="Path" fill="#FCB330"></path>
                    <path d="M749.9,75.4 C748.9,78.5 748.4,88.1 749.5,92.4 C749.6,92.6 769.5,94.1 771.7,90.6 C771.8,87.7 776.6,61.9 783.1,53.9 C783.7,53 782.4,50.5 782.4,50.5 L759.3,60.1 L749.9,75.4" id="Path" fill="#D3876C"></path>
                    <path d="M779.8,52.7 C781.3,54.7 783.2,55.6 784.9,55.6 C788.7,55.6 797.5,52.1 797.5,39.6 C797.5,30.6 788.7,26 788.7,21.7 C788.7,17.6 789.8,17.5 789.8,14.1 C789.8,12.4 788.1,6.8 782.8,6.8 C779.8,6.8 778.7,9.3 775.7,9.3 C772.4,9.3 769.4,2.9 764.4,2.9 C761,2.9 757.8,6.1 754.2,6.1 C750.1,6.1 747.3,1.42108547e-14 741.6,1.42108547e-14 C735.7,1.42108547e-14 733.6,5.3 731.3,5.3 C728.4,5.3 727.9,4.5 725,4.5 C723.2,4.5 717.7,7.7 717.7,13.5 C717.7,17.6 719.4,24.3 727.9,24.3 C732.9,24.3 735.7,32.2 740.1,32.2 C741.8,32.2 743.3,30.8 743.7,31.5 C745.4,34.5 748.9,42.7 748.9,42.7 L764.8,51.6 L779.8,52.7 Z" id="Path" fill="#000000"></path>
                    <path d="M776.3,48.6 C776.3,50 775.8,50.3 773.7,50.3 C772.7,50.3 771.3,49 771.3,47.6 C771.3,44.3 773.7,43.6 773.7,39.3 C773.7,32 754.6,28.2 747.9,24.4 L747.9,24.4 C745.5,26.8 743.8,29.9 743.1,33.4 L738.8,55.5 C736.9,65.1 743.2,74.4 752.7,76.3 C762.2,78.2 771.6,71.9 773.5,62.4 L774.2,58.6 L774.2,58.6 C774.6,58.7 775,58.8 775.3,58.8 C777.8,58.8 779.7,56.5 779.7,53.7 C779.9,51.1 776.3,46.5 776.3,48.6 Z" id="Path" fill="#E09577"></path>
                    <path d="M84.4,494.9 C64.1,359 14.4,287.7 8.1,290.4 C-0.8,294.3 -3.4,370.6 12.5,449.4 C12.9,449.4 13.2,449.3 13.6,449.3 C18.2,449.3 21.9,453 21.9,457.6 C21.9,459 21.6,460.3 21,461.4 C23.7,462.8 25.6,465.6 25.6,468.8 C25.6,472.8 22.7,476.2 18.9,477 C23.6,495.2 29.5,513.2 36.5,529.9 C40.1,529.9 80.5,529.9 80.5,529.9 C80.5,529.9 87.4,514.7 84.4,494.9 Z" id="Path" fill="#07A37E"></path>
                    <path d="M201.9,350.8 C189.6,350.8 176.4,386.2 161.8,386.2 C158.6,386.2 156.5,382.7 156.5,379.4 C156.5,376.2 166.6,341 166.6,323.9 C166.6,322.4 166.5,320.8 166.3,319.2 C164.7,320.2 162.7,320.8 160.7,320.8 C154.7,320.8 149.8,315.9 149.8,309.9 C149.8,304.6 153.5,300.3 158.5,299.2 C153.4,292.7 145.9,288.1 135.7,288.1 C122.8,288.1 104.6,299.6 104.6,317.4 C104.6,322.4 106.1,335.1 106.1,346.6 C106.1,411.8 55,421.6 55,493.8 C55,509 63.4,525.7 65.9,529.8 C65.9,529.8 108.7,530.3 112.8,530.3 C116.9,530.3 150.2,474.7 154,468.8 C168.5,446.4 216.7,421.8 216.7,368.3 C216.7,360.8 214,350.8 201.9,350.8 Z" id="Path" fill="#00BA94"></path>
                </g>
            </g>
            <g id="icons8-microphone" transform="translate(286.000000, 101.000000)" fill="#FFFFFF" fill-rule="nonzero">
                <path d="M8.59091255,0 C6.55734922,0 4.9091443,1.68147967 4.9091443,3.75609756 L4.9091443,18.7804878 C4.9091443,20.8551057 6.55734922,22.5365854 8.59091255,22.5365854 C10.6244759,22.5365854 12.2726808,20.8551057 12.2726808,18.7804878 L12.2726808,3.75609756 C12.2726808,1.68147967 10.6244759,0 8.59091255,0 Z M1.26583313,12.878765 C0.556760424,12.8895884 -0.00946735065,13.4589607 0.000119972716,14.1513836 L0.000119972716,19.1731996 C0.000119972716,23.5848611 3.36541224,27.2467405 7.71431604,27.8608433 L7.71431604,30.4722855 L3.85727953,30.4722855 C3.39361756,30.4658823 2.96234245,30.7037602 2.72859787,31.0948311 C2.49485328,31.4859019 2.49485328,31.9695771 2.72859787,32.360648 C2.96234245,32.7517188 3.39361756,32.9895967 3.85727953,32.9831935 L8.78404069,32.9831935 C8.92288299,33.0056022 9.06455082,33.0056022 9.20339312,32.9831935 L14.1427102,32.9831935 C14.6063722,32.9895967 15.0376473,32.7517188 15.2713919,32.360648 C15.5051365,31.9695771 15.5051365,31.4859019 15.2713919,31.0948311 C15.0376473,30.7037602 14.6063722,30.4658823 14.1427102,30.4722855 L10.2856737,30.4722855 L10.2856737,27.8608433 C14.6345775,27.2467405 17.9998759,23.5848611 17.9998759,19.1731996 L17.9998759,14.1513836 C18.0063041,13.6986218 17.7626993,13.2774854 17.3622135,13.0492359 C16.9617277,12.8209864 16.4664081,12.8209864 16.0659223,13.0492359 C15.6654365,13.2774854 15.4218317,13.6986218 15.4283891,14.1513836 L15.4283891,19.1731996 C15.4283891,22.6074073 12.6429864,25.3675116 9.14563786,25.4431138 C9.09066806,25.436361 9.03530877,25.4330846 8.97990614,25.433305 C8.93288401,25.434061 8.88593976,25.4373355 8.83928502,25.4431138 C5.34903983,25.359876 2.57160069,22.6024546 2.57160069,19.1731996 L2.57160069,14.1513836 C2.57635958,13.8120339 2.44023431,13.4852564 2.19424153,13.2455086 C1.94824875,13.0057607 1.61334274,12.8734648 1.26583313,12.878765 Z" id="Shape"></path>
            </g>
        </g>
    </g>
</svg>
